<svg width="15" height="11" fill="none" xmlns="http://www.w3.org/2000/svg"><mask id="a" fill="#fff"><path fill-rule="evenodd" clip-rule="evenodd" d="M.984.7a.726.726 0 00-.19.068C.76.798 7.134 6.853 7.27 6.92a.7.7 0 00.458 0c.135-.068 6.51-6.123 6.478-6.153a.804.804 0 00-.204-.07c-.155-.039-.876-.043-6.516-.041C1.993.658 1.123.664.984.699zm-.93.823C.003 1.662 0 1.863 0 5.655S.003 9.65.054 9.788c.03.08.062.146.073.146.011 0 1.037-.963 2.28-2.14l2.26-2.139-2.26-2.139a182.884 182.884 0 00-2.28-2.139c-.01 0-.044.066-.073.146zm12.539 1.993l-2.26 2.14 2.26 2.139a182.816 182.816 0 002.28 2.139c.01 0 .044-.066.073-.146.051-.139.054-.34.054-4.133 0-3.791-.003-3.993-.054-4.132-.03-.08-.062-.146-.073-.146-.011 0-1.037.963-2.28 2.14zM3.01 8.391C1.555 9.768.775 10.525.793 10.543a.802.802 0 00.204.07c.155.038.88.043 6.503.043 5.624 0 6.348-.005 6.503-.043a.801.801 0 00.204-.07c.018-.018-.763-.775-2.223-2.158l-2.251-2.13-.698.654c-.64.6-.718.664-.932.763l-.233.109h-.74l-.233-.11c-.213-.098-.295-.165-.926-.756-.38-.357-.697-.648-.704-.648-.007 0-1.023.956-2.257 2.124z"/></mask><path fill-rule="evenodd" clip-rule="evenodd" d="M.984.7a.726.726 0 00-.19.068C.76.798 7.134 6.853 7.27 6.92a.7.7 0 00.458 0c.135-.068 6.51-6.123 6.478-6.153a.804.804 0 00-.204-.07c-.155-.039-.876-.043-6.516-.041C1.993.658 1.123.664.984.699zm-.93.823C.003 1.662 0 1.863 0 5.655S.003 9.65.054 9.788c.03.08.062.146.073.146.011 0 1.037-.963 2.28-2.14l2.26-2.139-2.26-2.139a182.884 182.884 0 00-2.28-2.139c-.01 0-.044.066-.073.146zm12.539 1.993l-2.26 2.14 2.26 2.139a182.816 182.816 0 002.28 2.139c.01 0 .044-.066.073-.146.051-.139.054-.34.054-4.133 0-3.791-.003-3.993-.054-4.132-.03-.08-.062-.146-.073-.146-.011 0-1.037.963-2.28 2.14zM3.01 8.391C1.555 9.768.775 10.525.793 10.543a.802.802 0 00.204.07c.155.038.88.043 6.503.043 5.624 0 6.348-.005 6.503-.043a.801.801 0 00.204-.07c.018-.018-.763-.775-2.223-2.158l-2.251-2.13-.698.654c-.64.6-.718.664-.932.763l-.233.109h-.74l-.233-.11c-.213-.098-.295-.165-.926-.756-.38-.357-.697-.648-.704-.648-.007 0-1.023.956-2.257 2.124z" fill="#5CC280"/><path d="M.984.7L.737-.27.984.7zM7.27 6.92l.45-.893-.45.893zm.458 0l-.45-.893.45.893zM14.207.768l-.687.727.687-.727zm-.204-.07l-.24.97h.001l.24-.97zM7.487.657v1-1zm-7.433.866l.938.346-.938-.346zm0 8.265l-.939.346.939-.346zm2.353-1.993l-.687-.727.687.727zm2.26-2.14l.688.727.767-.727-.767-.726-.688.726zm-2.26-2.139l-.687.727.687-.727zm10.186 0l.687.727-.687-.727zm-2.26 2.14l-.688-.727-.767.726.767.727.688-.727zm2.26 2.139l.687-.727-.687.727zm2.353 1.993l.939.346-.939-.346zm0-8.265l-.938.346.938-.346zM3.01 8.39l-.688-.726.688.726zM.793 10.543l-.686.727.686-.727zm.204.07l.24-.97h-.001l-.24.97zm13.006 0l-.239-.97.24.97zm.204-.07l.686.727-.686-.727zm-2.223-2.158l-.687.727.687-.727zm-2.251-2.13l.687-.727-.684-.647-.687.644.684.73zm-.698.654l-.684-.73.684.73zm-.932.763l-.422-.906.422.906zm-.233.109v1h.221l.2-.094-.421-.906zm-.74 0l-.423.906.201.094h.222v-1zm-.233-.11l.423-.905-.423.906zm-.926-.756l.684-.73-.684.73zM.737-.27A2.386 2.386 0 00.4-.155C.396-.153.245-.09.106.041l1.375 1.453a.97.97 0 01-.273.18l-.009.003.01-.003a.512.512 0 01.021-.006L.737-.27zm-.63.311a1 1 0 00-.192 1.205c.039.072.078.123.087.135a2.925 2.925 0 00.142.159 103.776 103.776 0 00.935.913 501.644 501.644 0 004.434 4.212 115.246 115.246 0 00.998.924 4.138 4.138 0 00.139.117 1.148 1.148 0 00.171.109l.9-1.787a.833.833 0 01.15.093l.012.01A498.358 498.358 0 011.758.325a14.134 14.134 0 01-.183-.182L1.552.12a.587.587 0 01.04.047c.006.009.043.057.081.127a1 1 0 01-.192 1.201L.106.04zM6.82 7.815c.267.133.55.145.679.145.13 0 .412-.012.679-.145l-.9-1.787a.746.746 0 01.19-.065L7.5 5.96l.03.003.06.013a.746.746 0 01.13.052l-.899 1.787zm1.358 0c.064-.033.111-.066.124-.075a1.157 1.157 0 00.1-.076 20.065 20.065 0 00.322-.289c.19-.176.453-.42.762-.71a503.436 503.436 0 005.157-4.914 15.943 15.943 0 00.29-.293c.01-.011.035-.04.063-.076a1.005 1.005 0 00.184-.387 1.001 1.001 0 00-.288-.954L13.52 1.495a1 1 0 01-.19-1.204c.037-.07.074-.117.08-.126a.79.79 0 01.03-.035l.01-.012-.024.024a103.107 103.107 0 01-.892.87 503.88 503.88 0 01-4.415 4.194 114.231 114.231 0 01-.958.888 2.388 2.388 0 01-.043.038l.012-.01a.838.838 0 01.034-.025c.01-.007.054-.038.116-.069l.9 1.787zM14.893.04a1.047 1.047 0 00-.308-.202 2.58 2.58 0 00-.343-.112l-.478 1.942a.22.22 0 01.045.013c.004 0-.008-.003-.03-.013a.812.812 0 01-.136-.076.966.966 0 01-.123-.098L14.893.04zm-.65-.314a2.489 2.489 0 00-.498-.052 39.5 39.5 0 00-.937-.013 995.77 995.77 0 00-5.322-.005v2c2.822-.001 4.409 0 5.31.005.451.003.72.007.884.012.199.007.165.015.084-.005l.478-1.942zm-6.757-.07c-2.745 0-4.34.002-5.265.008-.461.003-.765.007-.965.013-.147.005-.353.01-.519.052L1.23 1.67c-.096.024-.141.015.086.008.174-.005.458-.009.918-.012.918-.006 2.505-.008 5.253-.008v-2zm-8.37 1.52c-.1.27-.102.563-.108 1.03C-1 2.756-1 3.763-1 5.654h2c0-1.9 0-2.89.008-3.423.008-.618.032-.494-.016-.363l-1.877-.692zM-1 5.655c0 1.892 0 2.9.008 3.45.006.465.008.76.107 1.029l1.877-.692c.048.13.024.255.016-.363A356.77 356.77 0 011 5.655h-2zm.115 4.479c.025.066.055.139.09.207a1.061 1.061 0 00.411.453c.086.05.265.14.511.14v-2a.995.995 0 01.813.422.614.614 0 01.05.085c.008.016.007.015.002.001l-1.877.692zm1.012.8a1.008 1.008 0 00.633-.225l.038-.033.052-.045.143-.133a543.27 543.27 0 002.101-1.977L1.72 7.068A535.172 535.172 0 01-.367 9.032a18.423 18.423 0 01-.144.132l-.005.005.004-.003a.764.764 0 01.014-.012c.005-.004.024-.02.05-.038a.991.991 0 01.204-.11.98.98 0 01.371-.072v2zM3.094 8.52l2.26-2.14L3.98 4.93 1.72 7.07l1.374 1.45zm2.26-3.592L3.095 2.79 1.72 4.243l2.26 2.139 1.375-1.453zM3.095 2.79A537.455 537.455 0 00.994.813 20 20 0 00.76.603 1.052 1.052 0 00.5.448C.464.435.321.377.126.377v2a.998.998 0 01-.575-.182l-.05-.038a.777.777 0 01-.018-.015l.005.005.016.014.128.118c.115.107.282.262.488.456.412.386.978.92 1.599 1.508L3.094 2.79zM.127.377a1.004 1.004 0 00-.836.445A1.272 1.272 0 00-.796.97a2.027 2.027 0 00-.089.207l1.877.692c.005-.015.006-.015-.001 0-.002.004-.02.04-.051.086a.944.944 0 01-.306.284.996.996 0 01-.507.138v-2zM11.905 2.79l-2.26 2.14 1.375 1.452 2.26-2.14-1.374-1.452zm-2.26 3.592l2.26 2.139 1.375-1.453-2.26-2.139-1.375 1.453zm2.26 2.139a545.315 545.315 0 002.102 1.977 21.808 21.808 0 00.233.21.988.988 0 00.26.154c.035.014.178.072.373.072v-2a.993.993 0 01.625.22l.014.012a.506.506 0 00.004.003l-.005-.005-.016-.014-.128-.118c-.115-.107-.282-.262-.488-.456a532.7 532.7 0 01-1.599-1.508l-1.374 1.453zm2.968 2.413a1.003 1.003 0 00.836-.445c.042-.062.072-.118.087-.148.034-.068.064-.141.089-.207l-1.877-.692c-.005.014-.006.015.001 0 .002-.004.02-.04.051-.086a.944.944 0 01.306-.284.995.995 0 01.507-.138v2zm1.012-.8c.099-.27.101-.564.107-1.03C16 8.555 16 7.548 16 5.656h-2c0 1.9 0 2.89-.008 3.424-.008.618-.032.494.016.363l1.877.692zM16 5.655c0-1.891 0-2.899-.008-3.449-.006-.466-.008-.76-.107-1.029l-1.877.692c-.048-.131-.024-.255-.016.363C14 2.766 14 3.755 14 5.655h2zm-.115-4.478a2.017 2.017 0 00-.09-.207 1.05 1.05 0 00-.412-.453 1.005 1.005 0 00-.51-.14v2a.996.996 0 01-.813-.422.614.614 0 01-.05-.085c-.008-.016-.007-.016-.002-.001l1.877-.692zm-1.012-.8a1.003 1.003 0 00-.671.257L14.15.68a539.455 539.455 0 00-2.245 2.11l1.375 1.453a532.525 532.525 0 012.087-1.964l.128-.118.016-.014.005-.005-.004.003-.014.012a.913.913 0 01-.135.092.993.993 0 01-.119.056.98.98 0 01-.371.072v-2zM2.323 7.665c-.73.69-1.292 1.227-1.67 1.595-.19.183-.337.329-.44.433-.048.05-.097.1-.135.143-.016.018-.05.056-.083.101a1.008 1.008 0 00-.19.449c-.019.122-.057.545.302.884L1.48 9.816a.999.999 0 01.211 1.164.927.927 0 01-.087.145c-.024.032-.041.05-.035.043l.072-.074c.084-.086.219-.219.404-.4.37-.359.925-.889 1.652-1.576L2.322 7.665zM.106 11.271a1.05 1.05 0 00.308.201 2.563 2.563 0 00.342.112l.479-1.942a.624.624 0 01-.045-.013l.03.013a.81.81 0 01.136.075.97.97 0 01.122.098L.107 11.271zm.65.313c.16.04.342.046.498.052.192.006.484.01.936.013a1004 1004 0 005.309.007v-2c-2.813 0-4.396-.001-5.296-.007a37.92 37.92 0 01-.883-.012c-.2-.007-.166-.015-.085.005l-.478 1.942zm6.743.072c2.81 0 4.401 0 5.309-.007.452-.003.744-.007.936-.013.156-.006.339-.013.497-.052l-.478-1.942c.08-.02.115-.012-.085-.005-.163.005-.432.01-.883.012-.9.006-2.483.007-5.296.007v2zm6.742-.072a2.582 2.582 0 00.343-.112 1.18 1.18 0 00.098-.048c.026-.015.117-.065.21-.154L13.52 9.816a.965.965 0 01.259-.174l.03-.013a.622.622 0 01-.045.013l.478 1.942zm.651-.314a1.001 1.001 0 00.21-1.172.884.884 0 00-.098-.16 1.43 1.43 0 00-.083-.102 4.406 4.406 0 00-.136-.144c-.102-.104-.25-.25-.44-.434-.38-.369-.943-.907-1.675-1.599l-1.374 1.453c.729.69 1.286 1.222 1.656 1.581a26.13 26.13 0 01.478.475c.006.007-.011-.011-.035-.043-.007-.01-.048-.065-.088-.145a.997.997 0 01.212-1.164l1.373 1.454zM12.67 7.659l-2.25-2.13L9.044 6.98l2.252 2.13 1.374-1.45zM9.05 5.525l-.698.655L9.72 7.639l.698-.655L9.05 5.525zm-.698.655c-.33.308-.48.447-.575.525a.533.533 0 01-.054.04l-.006.004a.852.852 0 01-.035.017l.844 1.813c.39-.181.594-.378 1.194-.94l-1.37-1.46zm-.67.586l-.233.108.844 1.813.233-.108-.844-1.813zm.189.015H7.5v2h.37v-2zm-.37 0h-.37v2h.37v-2zm.053.094l-.233-.11-.846 1.813.233.109.846-1.812zm-.233-.11c-.036-.016-.041-.02-.041-.02a.466.466 0 01-.055-.041 14.253 14.253 0 01-.57-.52l-1.366 1.46c.593.556.798.753 1.186.934l.846-1.812zm-.665-.58a80.954 80.954 0 00-.72-.663 1.438 1.438 0 00-.098-.077 1.01 1.01 0 00-.208-.11 1 1 0 00-.362-.068v2A1 1 0 014.7 7.09a.712.712 0 01-.068-.052 1.346 1.346 0 01.027.024l.144.131.486.452 1.367-1.46zm-1.388-.918a1.793 1.793 0 00-.327.054 1.002 1.002 0 00-.354.212 833.628 833.628 0 00-2.264 2.132l1.375 1.453a831.287 831.287 0 012.225-2.096l-.01.008-.033.027a.986.986 0 01-.286.155c-.06.018-.222.05-.326.055v-2z" fill="#5CC280" mask="url(#a)"/></svg>