<svg width="345" height="472" fill="none" xmlns="http://www.w3.org/2000/svg"><path d="M-275 186.79c19.593-19.992 46.985-30.326 71.747-38.8 65.327-22.357 133.166-37.954 200.334-51.537C66.026 82.51 136.002 72.18 206.073 68.966c2.558-.117 25.154-3.953 26.801 4.526 2.932 15.092-6.377 36.08-10.238 49.777-20.594 73.044-46.586 143.996-66.402 217.378-2.024 7.494-3.334 15.181-4.065 22.961-.1 1.056-.882 3.59 0 3.185 7.111-3.276 14.634-10.22 21.606-13.66 24.983-12.324 42.418-18.616 70.242-27.822 74.57-24.67 150.594-43.901 226.307-63.604 78.346-20.388 176.608-48.633 254.831-69.554 10.767-2.88-2.071 5.716 7.689 2.095 2.018-.749 4.221-3.21 6.098-2.095 4.398 2.611.422 34.732.15 38.045-4.813 58.784-22.066 115.407-28.909 173.802" stroke="#fff" stroke-opacity=".22" stroke-width="136" stroke-linecap="round"/></svg>