<svg width="11" height="15" fill="none" xmlns="http://www.w3.org/2000/svg"><path fill-rule="evenodd" clip-rule="evenodd" d="M5.117.007c-.681.077-1.071.16-1.509.321A5.566 5.566 0 00.806 2.601a5.397 5.397 0 00-.77 3.43c.231 1.848 1.568 4.401 3.784 7.227.524.668 1.198 1.468 1.353 1.606a.468.468 0 00.66 0c.155-.138.828-.938 1.353-1.607 1.994-2.542 3.273-4.853 3.677-6.645A4.93 4.93 0 0011 5.372c-.001-1.41-.573-2.755-1.603-3.77A5.432 5.432 0 006.365.065C6.085.02 5.318-.015 5.117.007zM5.85 2.72a2.8 2.8 0 012.328 1.99c.08.279.11.84.061 1.143a2.748 2.748 0 01-1.533 2.024 2.665 2.665 0 01-1.478.262c-.392-.043-.59-.1-.929-.262a2.748 2.748 0 01-1.532-2.024c-.049-.304-.019-.864.06-1.143C3.2 3.404 4.51 2.539 5.85 2.719z" fill="#5CC280"/></svg>