<svg width="1923" height="820" fill="none" xmlns="http://www.w3.org/2000/svg"><path d="M176 341.103c30.296-27.786 72.651-42.148 110.939-53.926 101.013-31.074 205.91-52.751 309.769-71.631 106.607-19.379 214.808-33.737 323.155-38.203 3.956-.163 38.896-5.495 41.443 6.29 4.533 20.976-9.861 50.147-15.832 69.184C913.631 354.34 873.44 452.954 842.8 554.947c-3.13 10.416-5.155 21.1-6.286 31.913-.154 1.468-1.363 4.99 0 4.426 10.996-4.553 22.628-14.204 33.409-18.985 38.629-17.128 65.589-25.875 108.611-38.669 115.306-34.289 232.856-61.018 349.926-88.402 121.15-28.337 273.09-67.594 394.04-96.672 16.65-4.003-3.2 7.944 11.89 2.911 3.12-1.04 6.53-4.46 9.43-2.911 6.8 3.628.65 48.273.23 52.878-7.44 81.703-34.12 160.402-44.7 241.564" stroke="#fff" stroke-opacity=".22" stroke-width="352" stroke-linecap="round"/></svg>