<svg width="829" height="619" fill="none" xmlns="http://www.w3.org/2000/svg"><path d="M76 241.103c13.056-27.786 31.308-42.148 47.808-53.926 43.53-31.074 88.734-52.751 133.49-71.631 45.941-19.38 92.568-33.737 139.259-38.203 1.705-.163 16.762-5.495 17.859 6.29 1.954 20.976-4.249 50.147-6.822 69.184-13.722 101.523-31.042 200.137-44.246 302.13-1.349 10.416-2.222 21.1-2.709 31.913-.066 1.468-.587 4.99 0 4.426 4.739-4.553 9.751-14.204 14.397-18.985 16.647-17.128 28.265-25.875 46.805-38.669 49.689-34.289 100.346-61.018 150.797-88.402 52.205-28.337 117.681-67.594 169.804-96.672 7.174-4.003-1.38 7.944 5.123 2.911 1.345-1.04 2.813-4.46 4.064-2.911 2.93 3.628.281 48.273.1 52.878-3.207 81.703-14.704 160.402-19.264 241.564" stroke="#fff" stroke-opacity=".22" stroke-width="151" stroke-linecap="round"/></svg>