<svg width="12" height="13" fill="none" xmlns="http://www.w3.org/2000/svg"><path fill-rule="evenodd" clip-rule="evenodd" d="M7.746.055a.467.467 0 01.375-.028.5.5 0 01.285.26L9.848 3.34c.886.072 1.443.257 1.802.726.59.773.354 1.935-.116 4.26l-.281 1.386c-.32 1.576-.479 2.364-1.02 2.826C9.694 13 8.933 13 7.41 13H4.59c-1.523 0-2.284 0-2.824-.463-.541-.462-.701-1.25-1.02-2.826l-.28-1.386C-.005 6-.24 4.838.35 4.065c.36-.47.916-.654 1.802-.726L3.595.287A.5.5 0 013.879.03a.467.467 0 01.373.029.512.512 0 01.246.298.548.548 0 01-.024.396L3.272 3.296c.315-.002.662-.003 1.039-.003h3.378c.377 0 .724 0 1.04.003L7.526.752A.548.548 0 017.5.355a.511.511 0 01.246-.3zM2.888 6.76c0-.138.051-.27.144-.368a.478.478 0 01.347-.152h5.242c.13 0 .256.054.348.152a.538.538 0 010 .735.478.478 0 01-.348.153H3.38a.478.478 0 01-.347-.153.536.536 0 01-.144-.367zM4.69 8.32a.478.478 0 00-.348.152.536.536 0 00-.144.368c0 .138.052.27.144.368a.478.478 0 00.348.152h2.62a.48.48 0 00.348-.152.536.536 0 00.144-.368.536.536 0 00-.144-.368.478.478 0 00-.347-.152H4.69z" fill="#55C16D"/></svg>