<svg width="14" height="14" fill="none" xmlns="http://www.w3.org/2000/svg"><path fill-rule="evenodd" clip-rule="evenodd" d="M2.423.037c-.339.074-.404.125-1.291 1.01-.775.771-.834.838-.925 1.03-.15.317-.187.489-.203.936-.017.452.02.75.157 1.27.825 3.131 4.522 7.25 8.06 8.979 1.049.512 1.841.735 2.622.738.479.002.72-.047 1.052-.21.213-.105.27-.154 1.04-.922.862-.859.914-.924 1.022-1.288a1.633 1.633 0 000-.743c-.098-.33-.138-.378-1.23-1.472-.575-.578-1.12-1.103-1.21-1.167-.546-.387-1.245-.333-1.701.13-.138.14-.191.222-.286.443-.065.149-.15.316-.192.371-.262.355-.769.58-1.2.535-.642-.068-1.601-.647-2.413-1.458-.983-.98-1.563-2.11-1.422-2.767a1.37 1.37 0 01.537-.797c.062-.042.193-.11.291-.151.285-.122.356-.161.488-.277.457-.398.557-1.143.224-1.67C5.745 2.4 3.852.49 3.621.313a1.583 1.583 0 00-.644-.288 1.248 1.248 0 00-.554.011z" fill="#5CC280"/></svg>