<svg width="13" height="13" fill="none" xmlns="http://www.w3.org/2000/svg"><path fill-rule="evenodd" clip-rule="evenodd" d="M9.345 12.833c-.9-.033-3.45-.386-6.122-3.056C.553 7.106.201 4.556.167 3.655.117 2.283 1.168.949 2.382.429a.919.919 0 01.903.1c1 .728 1.69 1.83 2.283 2.697a.94.94 0 01-.16 1.242l-1.22.905a.3.3 0 00-.088.385c.276.502.767 1.25 1.33 1.812.562.563 1.346 1.086 1.882 1.394a.302.302 0 00.403-.101l.794-1.209a.94.94 0 011.285-.207c.879.609 1.905 1.287 2.656 2.249a.92.92 0 01.119.928c-.524 1.22-1.847 2.26-3.224 2.21z" fill="#F1F1F1"/></svg>