<svg width="13" height="12" fill="none" xmlns="http://www.w3.org/2000/svg"><path d="M.302 5.58c1.25-.71 2.647-1.304 3.952-1.9A201.97 201.97 0 0111.027.85c.443-.153 1.239-.302 1.317.375-.043.959-.219 1.912-.34 2.864-.305 2.096-.659 4.184-1.004 6.272-.118.696-.963 1.056-1.503.611-1.3-.905-2.608-1.801-3.89-2.728-.42-.44-.03-1.072.344-1.387C7.021 5.77 8.156 4.845 9.17 3.701c.274-.681-.534-.107-.8.07C6.903 4.81 5.474 5.915 3.93 6.83c-.789.448-1.708.066-2.496-.184C.728 6.345-.308 6.04.302 5.58z" fill="#fff"/></svg>