<svg width="15" height="14" fill="none" xmlns="http://www.w3.org/2000/svg"><path d="M10.55 5.561c-.052-.436-.182-.779-.413-1.082-.3-.39-.682-.625-1.25-.764-.369-.092-.518-.081-.652.045-.124.118-.148.354-.053.507.067.111.144.151.358.195.286.054.484.124.663.23.382.228.56.583.578 1.159.01.27.032.353.123.449.17.175.472.141.6-.069.047-.079.054-.113.059-.296a3.026 3.026 0 00-.013-.374z" fill="#fff"/><path d="M12.044 6.052c-.076-1.337-.582-2.412-1.49-3.168a4.139 4.139 0 00-1.804-.86c-.248-.05-.705-.092-.783-.068a.483.483 0 00-.225.179.502.502 0 00-.019.366c.068.175.194.237.548.269a3.298 3.298 0 011.531.539c.485.333.87.788 1.12 1.323.215.46.348 1.122.344 1.716-.001.214.03.335.114.424.127.136.31.166.473.075.18-.097.222-.269.19-.795zm1.653 5.148a1.481 1.481 0 00-.127-.262c-.266-.415-1.695-1.57-2.41-1.947-.407-.216-.709-.288-.933-.22-.24.07-.367.185-.77.702-.163.208-.33.402-.374.433a.962.962 0 01-.477.141c-.353-.002-.993-.237-1.485-.547-.382-.24-.872-.67-1.248-1.096-.443-.5-.745-.94-.984-1.438-.308-.64-.387-1.03-.258-1.316a1.07 1.07 0 01.093-.172c.02-.022.218-.19.437-.373.431-.354.5-.434.581-.677a1.203 1.203 0 00-.082-.938 13.16 13.16 0 00-.663-1.102C4.695 1.943 3.943.991 3.793.863c-.27-.227-.617-.267-.999-.114-.403.162-1.16.79-1.482 1.229-.292.397-.404.678-.42 1.05-.015.305.01.431.166.822 1.223 3.064 3.047 5.51 5.554 7.452 1.31 1.015 2.667 1.787 4.076 2.316.821.307 1.178.322 1.598.07.178-.11.617-.575.862-.913.405-.563.556-.822.598-1.03.03-.142.006-.388-.049-.545z" fill="#fff"/><path d="M13.565 6.36a6.254 6.254 0 00-.407-2.067c-.254-.68-.511-1.124-.997-1.724-.459-.563-.815-.884-1.38-1.242C9.99.83 9.03.5 7.955.36c-.367-.048-.45-.045-.562.033-.218.147-.215.513.003.657.073.046.137.063.43.103.45.062.74.121 1.084.218 1.348.38 2.385 1.157 3.077 2.31.58.962.82 1.923.787 3.151-.012.415-.004.488.058.588.118.186.428.223.588.069.099-.094.118-.165.137-.52.01-.186.011-.46.007-.609z" fill="#fff"/></svg>