<svg width="14" height="14" fill="none" xmlns="http://www.w3.org/2000/svg"><path fill-rule="evenodd" clip-rule="evenodd" d="M6.687 13.182h-.003a6.202 6.202 0 01-3.04-.799l-3.373.913.902-3.401a6.714 6.714 0 01-.85-3.282C.326 2.993 3.18.048 6.687.048c1.703.001 3.3.685 4.501 1.926a6.632 6.632 0 011.862 4.644c-.001 3.618-2.854 6.563-6.362 6.564zM3.8 11.195l.193.118c.812.497 1.742.76 2.691.76h.003c2.914 0 5.287-2.447 5.288-5.456a5.512 5.512 0 00-1.548-3.86 5.172 5.172 0 00-3.738-1.6c-2.917 0-5.29 2.448-5.29 5.456a5.561 5.561 0 00.808 2.904l.125.206-.534 2.014 2.002-.542zm5.874-3.164c.111.055.186.093.218.148.04.068.04.397-.093.78-.132.383-.767.733-1.073.78-.274.042-.62.06-1.001-.065a8.954 8.954 0 01-.906-.346C5.329 8.664 4.32 7.174 4.13 6.892l-.028-.04L4.1 6.85c-.084-.116-.647-.892-.647-1.695a1.843 1.843 0 01.556-1.369.576.576 0 01.424-.205 6.12 6.12 0 01.34.006c.093 0 .208-.001.322.281l.176.44c.137.344.288.723.314.778.04.082.067.178.014.288l-.023.046a.937.937 0 01-.136.227 6.4 6.4 0 00-.082.101c-.054.07-.11.138-.157.187-.08.082-.162.17-.07.335.093.164.412.7.885 1.136.508.467.95.665 1.173.765.044.02.08.036.105.049.16.082.252.068.345-.041.093-.11.397-.48.503-.643.106-.164.212-.137.358-.082.146.054.927.451 1.086.533l.087.044z" fill="#FDFDFD"/></svg>